<svg xmlns="http://www.w3.org/2000/svg" viewBox="0 0 346.44 151.46"><defs><style>.cls-1{fill:#ff9d72;stroke:#ff9d72;}.cls-1,.cls-2,.cls-3{stroke-miterlimit:10;}.cls-2{fill:#f4f4f4;stroke:#bdccd4;}.cls-3{fill:#ffd66b;stroke:#ffd66b;}</style></defs><g id="Capa_2" data-name="Capa 2"><path class="cls-1" d="M32.35,54.94a2.75,2.75,0,1,1,2.74-2.75A2.75,2.75,0,0,1,32.35,54.94Zm0-5.21a2.46,2.46,0,1,0,2.46,2.46A2.47,2.47,0,0,0,32.35,49.73Z"/><path class="cls-1" d="M206.6,41.56a2.86,2.86,0,1,1,2.85-2.86A2.86,2.86,0,0,1,206.6,41.56Zm0-5.43a2.58,2.58,0,1,0,2.57,2.57A2.58,2.58,0,0,0,206.6,36.13Z"/><rect class="cls-1" x="114.9" y="51.02" width="0.29" height="2.95"/><rect class="cls-1" x="116.16" y="49.76" width="3.46" height="0.29"/><rect class="cls-1" x="114.9" y="44.91" width="0.29" height="3.36"/><rect class="cls-1" x="110.36" y="49.76" width="3.26" height="0.29"/><rect class="cls-1" x="229.21" y="69.97" width="0.29" height="2.95"/><rect class="cls-1" x="230.47" y="68.7" width="3.46" height="0.29"/><rect class="cls-1" x="229.21" y="63.86" width="0.29" height="3.36"/><rect class="cls-1" x="224.67" y="68.7" width="3.26" height="0.29"/><rect class="cls-1" x="295.49" y="29.85" width="0.29" height="2.95"/><rect class="cls-1" x="296.75" y="28.59" width="3.46" height="0.29"/><rect class="cls-1" x="295.49" y="23.74" width="0.29" height="3.36"/><rect class="cls-1" x="290.95" y="28.59" width="3.26" height="0.29"/><path class="cls-2" d="M68.84,32.34H44.35l-.08-.17c-.7-1.71-.79-2.83-.31-3.52a2.27,2.27,0,0,1,1.92-.76A1.88,1.88,0,0,1,46,26.56c.59-1.39,2.53-3.23,4.22-3.29A8.35,8.35,0,0,1,58,14.13c5.12-.42,6.92,4.54,7.68,6.66.09.26.19.54.27.72a5.27,5.27,0,0,1,2.9-.32l-.07.56c-.89-.1-2.28-.08-2.59.3a.35.35,0,0,1-.34.15c-.29-.05-.4-.37-.71-1.22-.78-2.17-2.4-6.67-7.09-6.29a7.59,7.59,0,0,0-6,3.44,7.14,7.14,0,0,0-1.22,5.35l.15.45-.46-.07c-1.35-.21-3.41,1.47-4,2.93-.17.38-.29.9.06,1.17l.74.57-.93-.06c-1.05,0-1.71.11-2,.51s-.25,1.4.3,2.79H68.84Z"/><path class="cls-2" d="M75.19,32.45a5,5,0,0,1-1-.11l.12-.56s2.13.47,2.52-.69a2,2,0,0,0-.22-1.82,2.77,2.77,0,0,0-2.36-.93v-.57A3.23,3.23,0,0,1,77,28.94a2.54,2.54,0,0,1,.3,2.33A2,2,0,0,1,75.19,32.45Z"/><path class="cls-2" d="M184.76,55.39H148.92c-.57,0-1.59-.43-1.56-1.44,0-1.2,1.35-1.71,1.4-1.74l.1,0,2.67-.08a5.26,5.26,0,0,1,1.72-5,11.62,11.62,0,0,1,5.29-2.83c-.07-1-.15-4.69,1.73-6.84a4.54,4.54,0,0,1,3.4-1.56c4.37-.16,6,2.68,6.46,4.11a3.25,3.25,0,0,1,3.9-1.5c3.07.74,4.22,2.37,4.29,6.18,6.68-1.41,9.91,5.68,9.94,5.76l-.52.23c-.13-.29-3.18-7-9.64-5.36l-.35.09V45c0-3.83-.94-5.28-3.85-6a2.74,2.74,0,0,0-3.56,1.86L170,42.2l-.21-1.36A5.46,5.46,0,0,0,164,36.42h-.33a4,4,0,0,0-3,1.36c-2,2.28-1.58,6.64-1.57,6.68l0,.27-.26,0a10.87,10.87,0,0,0-5.25,2.73,4.66,4.66,0,0,0-1.48,4.78l.13.37-3.36.11c-.19.09-1,.49-1,1.2s1,.86,1,.86h35.81Z"/><path class="cls-2" d="M279.7,50.88h-19c-3.14-.13-3.69-1.1-3.69-3.11a2,2,0,0,1,.59-1.67,2.68,2.68,0,0,1,2.16-.25v-.07c.06-.89.11-1.72,1.66-3.73s4.49-1.59,5.42-1.39c.44-1.54,2.94-9,9.67-9,7.46,0,10.12,8.72,10.15,8.81l-.55.16c0-.08-2.57-8.4-9.6-8.4s-9.17,8.76-9.19,8.85l-.07.28-.29-.07s-3.5-.94-5.09,1.12c-1.44,1.87-1.49,2.62-1.54,3.41l0,.41,0,.32-.31-.07c-1.07-.22-1.67-.2-2,.07a1.52,1.52,0,0,0-.38,1.23c0,1.54.14,2.42,3.13,2.54h19Z"/><polygon class="cls-3" points="73.1 14.46 72.75 14.6 73.18 14.6 73.17 14.48 73.1 14.46"/><polygon class="cls-3" points="73.1 14.46 73.17 14.48 73.18 14.6 74.63 14.6 74.63 14.34 73.46 14.34 73.1 14.46"/><path class="cls-3" d="M299.08,40.4H279.55v93.67h-9V100.78l1.55-3.06h-4.67V96.14h3.12l-1.74-4.65h3.84l-2-2H268.3V86.28h-3.48v3.53h-2.18l-2.11,1.75h3.9l-1.53,4.51h2.33v1.65H261l1.4,3.23v32.78h-5.16v8h-1.73v5.39h-1V110.42h-4.18v-4h-2.8v-3.54h-4.28c-.11-1.32-1.22-11.81-8.85-11.94-.07-3.27-2.33-3.41-2.36-3.41a1.88,1.88,0,0,0-1.22.57,3.93,3.93,0,0,0-.93,2.84c-7.69.13-9,10.72-9.12,12h-3.81v3.26h-2.85v4.48H210v30.41h-3.78V57.91l-6.14-9.34v3.37c-1.44-.29-8.78,0-11.37.06V49.26l-5.69,8v59.87h-33.3l-5.95-19.7h-27v2.37h1.61v14h-1.28v2.28h1.66v10.65H115.2V70h-.14C97.8,70,88.49,79,83.72,86.49a45.83,45.83,0,0,0-6,15.15l-2-43.9h4.67v-5h1.94V46.36H78.5v-3H75.85V38.16H74.12L73.87,18h2.34v-3.7H74.63v.26H73.18v0h2.74v3.13H73.58l.26,20.7h1.73v5.24h2.64v3H82v5.77H80.1v5H75.41l2,45.51h.29A44.82,44.82,0,0,1,84,86.63c4.72-7.42,13.91-16.27,31-16.32V127h4.15V115.8h-1.65v-1.71h1.27V99.55h-1.6v-1.8h26.48l6,19.7h33.8V57.39l5.11-7.23V52.3h.15c4.23-.16,11.1-.33,11.55-.06,0,0,0,0,0,0h.28V49.52L205.94,58v83.41h4.36V111h4.07v-4.48h2.85v-3.26H221v-.13c0-.12,1-11.9,9-11.9h.14v-.15a3.84,3.84,0,0,1,.84-2.77,1.59,1.59,0,0,1,1-.49c.08,0,2.07.14,2.07,3.26v.15h.15c8,0,8.71,11.68,8.71,11.8v.13h4.27v3.54H250v4h4.17v36.68h1.54V142h1.73v-8h5.16v-33.1L261.38,98h4.14V95.79H263.3l1.53-4.52h-3.5l1.42-1.17h2.36V86.57H268v3.22h2.52L272,91.21h-3.56l1.73,4.64h-3V98h4.5l-1.36,2.67v33.68h9.58V40.69h19V149.42h.28Z"/><path class="cls-3" d="M67.76,57.86v-.15H62.62V52.52h-2.4V46.69h4V43.28h3.1V38.19H69V17.54H66.84v-3h3L70.3,14v-.15H68.42v-2H70.3V2.33h2.11v9.46h1.94v2.52H72.46l.64.15.36-.13h1.17V11.51H72.7V2H70v9.52H68.14v2.58H70l-.51.09h-3v3.6H68.7V37.91H67V43h-3.1v3.41h-4V52.8h2.39V58h5.14L63.92,138.4h.22Z"/><polygon class="cls-3" points="289.43 149.29 279.56 50.13 279.84 50.1 289.57 147.81 298.8 50.71 299.08 50.74 289.71 149.29 289.43 149.29"/><rect class="cls-3" x="4.67" y="138.11" width="59.41" height="0.29"/><rect class="cls-3" x="298.8" y="149.14" width="42.97" height="0.29"/></g></svg>